# xmcd CD database file
#
# Track frame offsets:
#	150
#	24515
#	47822
#	67447
#	93117
#	117612
#	137192
#	158342
#	174167
#	188890
#	209567
#	210807
#
# Disc length: 3153 seconds
#
# Revision: 3
# Processed by: cddbd v1.5PL3 Copyright (c) Steve Scherf et al.
# Submitted via: CDex 1.51
#
DISCID=a60c4f0c
DTITLE=エレファントカシマシ - good morning
DYEAR=2000
DGENRE=Rock
TTITLE0=ガストロンジャー
TTITLE1=眠れない夜
TTITLE2=ゴッドファーザー
TTITLE3=good morning
TTITLE4=武蔵野
TTITLE5=精神暗黒街
TTITLE6=情熱の揺れるまなざし
TTITLE7=I am Happy
TTITLE8=生存者は今日も笑う
TTITLE9=so many people
TTITLE10=Ladies and Gentleman
TTITLE11=コールアンドレスポンス
EXTD=YEAR: 2000
EXTT0=
EXTT1=
EXTT2=
EXTT3=
EXTT4=
EXTT5=
EXTT6=
EXTT7=
EXTT8=
EXTT9=
EXTT10=
EXTT11=
PLAYORDER=
